<?xml version="1.0" encoding="UTF-8" standalone="no"?>
<svg
   viewBox="0 0 576 576"
   version="1.1"
   id="svg1"
   width="576"
   height="576"
   xmlns="http://www.w3.org/2000/svg"
   xmlns:svg="http://www.w3.org/2000/svg">
  <defs
     id="defs1" />
  <rect
     style="fill:#b91c1c;stroke-width:1.00157;stroke-linecap:square;stroke-linejoin:round;stroke-miterlimit:2;paint-order:fill markers stroke"
     id="rect1"
     width="576"
     height="576"
     x="0"
     y="0"
     rx="52"
     ry="52" />
  <!--!Font Awesome Free v7.3.0 by @fontawesome - https://fontawesome.com License - https://fontawesome.com/license/free Copyright 2026 Fonticons, Inc.-->
  <path
     d="M 95.729903,28 C 62.2336,28 35,55.233577 35,88.729927 V 453.10949 c 0,33.49635 27.2336,60.72993 60.729903,60.72993 H 171.6423 V 407.56204 c 0,-33.49635 27.2336,-60.72992 60.7299,-60.72992 h 167.0073 v -157.0438 c 0,-16.13139 -6.3576,-31.59854 -17.7445,-42.9854 L 280.4817,45.744526 C 269.0949,34.357664 253.7226,28 237.5912,28 Z M 343.8686,195.0073 H 255.146 c -12.6205,0 -22.7738,-10.15329 -22.7738,-22.77372 V 83.510949 Z M 232.3722,388.58394 c -10.4379,0 -18.9781,8.54015 -18.9781,18.9781 V 529.0219 c 0,10.43795 8.5402,18.9781 18.9781,18.9781 10.438,0 18.9781,-8.54015 18.9781,-18.9781 v -26.56935 h 11.3869 c 31.4088,0 56.9343,-25.52554 56.9343,-56.9343 0,-31.40876 -25.5255,-56.93431 -56.9343,-56.93431 z m 30.365,75.91241 h -11.3869 v -37.9562 h 11.3869 c 10.438,0 18.9781,8.54014 18.9781,18.9781 0,10.43795 -8.5401,18.9781 -18.9781,18.9781 z m 91.0949,-75.91241 c -10.438,0 -18.9781,8.54015 -18.9781,18.9781 V 529.0219 c 0,10.43795 8.5401,18.9781 18.9781,18.9781 h 30.365 c 27.2335,0 49.343,-22.10949 49.343,-49.34307 v -60.72992 c 0,-27.23358 -22.1095,-49.34307 -49.343,-49.34307 z m 18.9781,121.45986 v -83.50365 h 11.3869 c 6.2627,0 11.3868,5.12408 11.3868,11.38686 v 60.72992 c 0,6.26278 -5.1241,11.38687 -11.3868,11.38687 z M 456.3138,407.56204 V 529.0219 c 0,10.43795 8.5402,18.9781 18.9781,18.9781 10.438,0 18.9781,-8.54015 18.9781,-18.9781 v -41.75183 h 26.5694 c 10.4379,0 18.9781,-8.54014 18.9781,-18.9781 0,-10.43796 -8.5402,-18.9781 -18.9781,-18.9781 H 494.27 v -22.77372 h 26.5694 c 10.4379,0 18.9781,-8.54015 18.9781,-18.97811 0,-10.43795 -8.5402,-18.9781 -18.9781,-18.9781 h -45.5475 c -10.4379,0 -18.9781,8.54015 -18.9781,18.9781 z"
     id="path1"
     style="fill:#ffffff;fill-opacity:1;stroke-width:0.948905" />
</svg>
